<?xml version="1.0" encoding="UTF-8"?>
<svg fill="none" version="1.1" viewBox="0 0 24 24" xmlns="http://www.w3.org/2000/svg">
 <g stroke="currentColor" stroke-linecap="round" stroke-linejoin="round" stroke-width="1.5">
  <path d="m18.08 12c0 0.5302 0.4298 0.96 0.96 0.96s0.96-0.4298 0.96-0.96-0.4298-0.96-0.96-0.96-0.96 0.4298-0.96 0.96z"/>
  <path d="m11.04 12c0 0.5302 0.4298 0.96 0.96 0.96s0.96-0.4298 0.96-0.96-0.4298-0.96-0.96-0.96-0.96 0.4298-0.96 0.96z"/>
  <path d="m4 12c0 0.5302 0.42983 0.96 0.96 0.96 0.53018 0 0.96-0.4298 0.96-0.96s-0.42982-0.96-0.96-0.96c-0.53017 0-0.96 0.4298-0.96 0.96z"/>
 </g>
 <g fill="#fff">
  <g stroke-width=".027088">
   <path d="m4.7396 13.681c-0.76611-0.10243-1.3771-0.7293-1.4591-1.4971-0.1062-0.99388 0.65881-1.8613 1.6495-1.8703 0.32068-0.0029 0.49243 0.03601 0.78555 0.17806 0.3236 0.15682 0.60136 0.43441 0.75265 0.75219 0.13746 0.28874 0.17984 0.46697 0.17984 0.75638 0 0.29296-0.042817 0.47064-0.18277 0.75846-0.13681 0.28134-0.40425 0.56595-0.66845 0.71133-0.31869 0.17537-0.72188 0.25585-1.0572 0.21101zm0.37147-1.523c0.082703-0.0777 0.084507-0.2259 0.0038-0.31182-0.12737-0.13557-0.37451-0.03394-0.37451 0.15401 0 0.18494 0.23524 0.28508 0.37071 0.15781z" style="font-variation-settings:'wght' 900"/>
   <path d="m11.783 13.681c-0.24129-0.03226-0.50374-0.13302-0.71564-0.27475-0.22309-0.14921-0.3506-0.28032-0.50511-0.51938-0.33326-0.51562-0.33326-1.2577 0-1.7734 0.15765-0.24391 0.29099-0.38054 0.51368-0.52633 0.29216-0.19127 0.56708-0.27209 0.92453-0.2718 0.2159 1.78e-4 0.33011 0.01448 0.47404 0.05937 0.54978 0.17145 0.96743 0.58194 1.1403 1.1208 0.10062 0.31356 0.10034 0.6966-7.19e-4 1.0116-0.08574 0.26724-0.28526 0.57773-0.48407 0.75331-0.36245 0.32009-0.88299 0.48261-1.3471 0.42056zm0.37147-1.523c0.1397-0.13124 0.04212-0.37451-0.15021-0.37451-0.12949 0-0.2205 0.08788-0.2205 0.21291 0 0.19694 0.22752 0.29613 0.37071 0.1616z" style="font-variation-settings:'wght' 900"/>
   <path d="m18.826 13.681c-0.55033-0.072769-1.0522-0.43127-1.2909-0.92214-0.13996-0.28782-0.18277-0.4655-0.18277-0.75846s0.04282-0.47064 0.18277-0.75846c0.1992-0.40965 0.57328-0.72326 1.0341-0.86698 0.28212-0.08798 0.68364-0.08362 0.97729 0.01062 0.3706 0.11893 0.68267 0.35173 0.88897 0.66316 0.20693 0.31238 0.2911 0.58756 0.2911 0.95167 0 0.37422-0.11518 0.71971-0.34372 1.031-0.33562 0.45721-0.97961 0.72589-1.5569 0.64955zm0.36752-1.5304c0.08796-0.08796 0.08796-0.21247 0-0.30043-0.1387-0.1387-0.36692-0.04764-0.36692 0.14642 0 0.2015 0.22499 0.29594 0.36692 0.15401z" style="font-variation-settings:'wght' 900"/>
  </g>
  <path d="m19.002 11.526c-0.09461 0.0577-0.16439 0.15085-0.24379 0.23025-0.0632 0.0632-0.13378 0.11982-0.18962 0.18962-0.02661 0.03326-0.04348 0.07333-0.06772 0.10835-0.06086 0.08792-0.05937 0.04039-0.06772 0.14898-0.0055 0.07195-0.0043 0.1402 0.04063 0.20316 0.08507 0.11909 0.27854 0.19079 0.41986 0.16253 0.05688-0.01138 0.20928-0.08798 0.25734-0.1219 0.13928-0.09831 0.36162-0.44155 0.27088-0.62302-0.05376-0.10752-0.12591-0.20586-0.20316-0.29797-0.04123-0.04916-0.09192-0.09255-0.14898-0.1219-0.23585-0.12129-0.3801-0.13544-0.62302-0.13544" style="font-variation-settings:'wght' 900"/>
  <path d="m11.797 11.58c-0.02796 0.10656-0.13429 0.16441-0.16253 0.28442-0.04417 0.18772 0.09816 0.44608 0.24379 0.5553 0.0569 0.04267 0.10707 0.04925 0.17607 0.05418 0.03152 0.0023 0.0646 0.0093 0.09481 0 0.16544-0.05091 0.23755-0.3281 0.2167-0.47404-0.01747-0.12227-0.04934-0.1377-0.09481-0.24379-0.01125-0.02625-0.01584-0.05502-0.02709-0.08126-0.01037-0.0242-0.04298-0.03164-0.06772-0.04063-0.0805-0.02927-0.16253-0.05418-0.24379-0.08127" style="font-variation-settings:'wght' 900"/>
  <path d="m5.079 11.621c-0.1063 0-0.037693-0.0062-0.16253 0.02709-0.11772 0.03139-0.20635 0.06102-0.28442 0.16253-0.08306 0.10798-0.17268 0.51564 0.013544 0.56885 0.2937 0.08392 1.0046-0.09812 1.0835-0.43341 0.00804-0.03418-0.072376-0.16052-0.081264-0.17607" style="font-variation-settings:'wght' 900"/>
 </g>
</svg>
