<?xml version="1.0" encoding="UTF-8"?>
<svg fill="none" version="1.1" viewBox="0 0 24 24" xmlns="http://www.w3.org/2000/svg">
 <path d="m12 7.2294c-1.7329-3.9238-5.764-4.2726-7.6413-2.5614-1.5282 1.3733-2.2623 4.6649-0.86641 7.695 2.4067 5.21 8.5077 7.9457 8.5077 7.9457s6.101-2.7357 8.5076-7.9457c1.396-3.03 0.6619-6.3216-0.8663-7.695-1.8773-1.7112-5.9085-1.3624-7.6413 2.5614z" stroke="currentColor" stroke-linecap="round" stroke-linejoin="round" stroke-width="1.5"/>
 <path d="m11.807 21.023c-0.22465-0.073138-1.3687-0.68747-1.986-1.0664-1.5898-0.976-2.9114-2.0176-4.1198-3.2468-1.081-1.0997-1.804-2.0508-2.4805-3.2634-1.0397-1.8634-1.4195-3.876-1.0943-5.7979 0.36153-2.1361 1.416-3.6595 2.9794-4.3042 1.1763-0.4851 2.4616-0.51509 3.7496-0.087501 0.38944 0.12928 0.96522 0.40806 1.3158 0.6371 0.56833 0.37127 1.1819 0.94674 1.5958 1.4967 0.11772 0.15643 0.22243 0.28442 0.23268 0.28442s0.11426-0.12799 0.23113-0.28442c0.27349-0.36606 0.89743-0.99145 1.2492-1.2521 1.258-0.93215 2.7445-1.3327 4.1946-1.1304 0.54639 0.07625 1.2391 0.3087 1.7039 0.57178 0.84328 0.47729 1.5419 1.2918 1.9822 2.3113 0.42008 0.9725 0.61422 1.9459 0.61602 3.0886 0.0012 0.76131-0.08032 1.4443-0.25539 2.14-0.33121 1.316-1.0482 2.7135-2.0916 4.0767-0.79197 1.0347-1.9514 2.1986-3.111 3.123-1.2047 0.96029-2.547 1.8226-3.8735 2.4882-0.379 0.19018-0.46 0.22098-0.60265 0.22908-0.09064 0.0051-0.19669-1e-3 -0.23566-0.01371zm0.63971-1.7664c2.3959-1.2948 4.5582-3.068 5.9753-4.9001 0.86095-1.1131 1.5031-2.3018 1.7974-3.3272 0.46398-1.6165 0.36288-3.3596-0.27194-4.6887-0.46828-0.98045-1.1249-1.5442-2.0906-1.795-0.27546-0.071536-0.37951-0.084311-0.7832-0.096159-0.5147-0.015107-0.76012 0.00986-1.1868 0.12073-0.48945 0.12717-0.87449 0.30275-1.317 0.60055-0.75961 0.51119-1.3172 1.1758-1.798 2.1431-0.20097 0.4043-0.25028 0.46625-0.45099 0.56655-0.2302 0.11503-0.41202 0.11503-0.64222 0-0.1997-0.099792-0.24991-0.16239-0.44693-0.55715-0.49032-0.98246-1.0412-1.6405-1.8021-2.1525-0.44252-0.2978-0.82756-0.47338-1.317-0.60055-0.42671-0.11087-0.67213-0.13584-1.1868-0.12073-0.40369 0.011849-0.50774 0.024623-0.7832 0.09616-0.57434 0.14915-1.0136 0.3959-1.4034 0.78831-1.3213 1.3302-1.6372 4.1507-0.71677 6.3984 0.94287 2.3025 3.0057 4.606 5.8036 6.4809 0.72792 0.48776 2.0621 1.263 2.1737 1.263 0.02235 0 0.22348-0.09881 0.44695-0.21959z" fill="#e2264d" stroke-width=".027088" style="font-variation-settings:'wght' 900"/>
 <path d="m4.4966 4.7133c-0.22802 0.32746-0.3061 0.7395-0.59594 1.0293-0.35871 0.35871-0.084372-0.028777-0.37923 0.32506-0.19408 0.23289-0.04036 0.080719-0.16253 0.32506-0.07619 0.15238-0.18636 0.28549-0.27088 0.43341-0.070722 0.12376-0.075433 0.24755-0.10835 0.37923 0.032653 0.098056-0.087762 0.10076-0.10835 0.16253-0.011421 0.034264 0.00876 0.073313 0 0.10835-0.033356 0.13342-0.12475 0.24699-0.16253 0.37923-0.05276 0.18466-0.088024 0.44702-0.054176 0.65011 0.023113 0.13868 0.14069 0.2482 0.16253 0.37923 0.064314 0.38589-0.073688 0.059574 0.054176 0.37923 0.082966 0.20742 0.23243 0.36526 0.27088 0.59594 0.038695 0.23217 0.06153 0.47018 0.10835 0.70429 0.00792 0.0396 0.047538 0.06852 0.054176 0.10835 0.029509 0.17706 0.018959 0.36567 0.054176 0.54176 0.049131 0.24565 0.13073 0.50409 0.16253 0.75846 0.0112 0.0896-0.012769 0.18149 0 0.27088 0.00571 0.03998 0.044382 0.06918 0.054176 0.10835 0.00876 0.03504-0.016152 0.07605 0 0.10835 0.00808 0.01615 0.048465-0.01713 0.054176 0 0.021671 0.06501-0.02167 0.15169 0 0.2167 0.15131 0.45394 0.45642 0.8685 0.75846 1.246 0.15856 0.1982 0.3832 0.34356 0.54176 0.54176 0.10711 0.13389 0.20426 0.31261 0.32506 0.43341 0.046041 0.04604 0.11251 0.06667 0.16253 0.10835 0.17587 0.14656 0.31374 0.33858 0.48758 0.48758 0.15257 0.13078 0.33145 0.20795 0.48758 0.32506 0.19301 0.14476 0.35699 0.33361 0.54176 0.48758 0.031021 0.02585 0.083127 0.02264 0.10835 0.05418 0.050451 0.06306 0.066801 0.14745 0.10835 0.2167 0.15717 0.26195 0.42802 0.45242 0.59594 0.70429 0.031677 0.04752 0.024795 0.11356 0.054176 0.16253 0.098101 0.1635 0.2595 0.33792 0.37923 0.48758 0.11501 0.14376 0.24082 0.22124 0.37923 0.32506 0.16183 0.12137 0.27537 0.30698 0.43341 0.43341 0.18315 0.14652 0.39537 0.31307 0.59594 0.43341 0.33055 0.19833 0.73087 0.29235 1.0835 0.43341 0.75626 0.3025 1.1217 0.48758 1.8962 0.48758 0.21625 0 1.0731 0.05936 1.1919 0 0.04569-0.02284 0.06267-0.08551 0.10835-0.10835 0.13239-0.06619 0.32452-0.10781 0.43341-0.2167 0.1449-0.1449 0.05587-0.16366 0.2167-0.27088 0.0672-0.0448 0.14951-0.06355 0.2167-0.10835 0.11212-0.07475 0.1339-0.16738 0.2167-0.27088 0.1093-0.13662 0.24574-0.21826 0.37923-0.32506 0.20734-0.16588 0.02982-0.03977 0.16253-0.2167 0.14218-0.18957 0.0585-0.04387 0.2167-0.16253 0.11988-0.08991 0.17448-0.22866 0.27088-0.32506 0.37302-0.37302 0.13276-0.12056 0.43341-0.27088 0.08387-0.04193 0.14124-0.16011 0.2167-0.2167 0.19853-0.1489 0.44418-0.28524 0.59594-0.48758 0.02423-0.03231 0.02562-0.0798 0.05418-0.10835 0.09487-0.09487 0.24795-0.14236 0.32506-0.27088 0.02938-0.04897 0.02479-0.11356 0.05418-0.16253 0.07886-0.13142 0.25706-0.24324 0.32506-0.37923 0.02554-0.05108 0.02864-0.11145 0.05418-0.16253 0.02159-0.04317 0.18295-0.11544 0.2167-0.2167 0.02912-0.08736 0.02888-0.18234 0.05418-0.27088 0.01924-0.06735 0.21575-0.35072 0.27088-0.43341 0.0224-0.0336 0.09029-0.01806 0.10835-0.05418 0.01615-0.0323-0.01142-0.07409 0-0.10835 0.01615-0.04846 0.08551-0.06267 0.10835-0.10835 0.0081-0.01615-0.01277-0.04141 0-0.05418 0.02855-0.02855 0.0798-0.02562 0.10835-0.05418 0.05711-0.05711 0.05125-0.1596 0.10835-0.2167 0.02855-0.02855 0.0798-0.02562 0.10835-0.05418 0.08304-0.08304 0.21858-0.27464 0.27088-0.37923 0.02554-0.05108 0.0225-0.11501 0.05418-0.16253 0.0425-0.06375 0.11467-0.1027 0.16253-0.16253 0.02523-0.03153 0.02562-0.0798 0.05418-0.10835 0.04604-0.04604 0.12185-0.05751 0.16253-0.10835 0.03568-0.04459 0.0248-0.11356 0.05418-0.16253 0.02628-0.0438 0.08207-0.06455 0.10835-0.10835 0.08634-0.1439 0.08991-0.34235 0.16253-0.48758 0.02284-0.04569 0.08551-0.06267 0.10835-0.10835 0.0333-0.0666 0.02803-0.14699 0.05418-0.2167 0.05112-0.13632 0.16558-0.24291 0.2167-0.37923 0.10855-0.28947 0.09379-0.6342 0.2167-0.92099 0.02565-0.05985 0.0827-0.10268 0.10835-0.16253 0.11307-0.26383 0.02089-0.1462 0.05418-0.37923 0.02703-0.18921 0.13165-0.35647 0.16253-0.54176 0.0089-0.053439-0.01063-0.1094 0-0.16253 0.02167-0.10836 0.08668-0.2167 0.10835-0.32506 0.04515-0.22573-0.0301-0.090293 0-0.27088 0.07095-0.42569 0.17149-0.85825 0.10835-1.3002-0.028877-0.20189-0.11833-0.39687-0.16256-0.59592-0.091634-0.41235-0.31721-1.2227-0.59594-1.5711-0.047862-0.059827-0.11467-0.1027-0.16253-0.16253-0.15551-0.19439-0.28629-0.53779-0.43341-0.75846-0.08984-0.13476-0.01245-0.00622-0.10835-0.054176-0.07627-0.038133-0.15299-0.16892-0.2167-0.2167-0.06461-0.048457-0.15364-0.057901-0.2167-0.10835-0.05983-0.047862-0.09878-0.12003-0.16253-0.16253-0.04752-0.031677-0.11356-0.024795-0.16253-0.054176-0.0438-0.026279-0.06267-0.08551-0.10835-0.10835-0.0323-0.016152-0.07482 0.013414-0.10835 0-0.12058-0.048232-0.25779-0.15598-0.37923-0.2167-0.53264-0.26632-1.0198-0.43341-1.6253-0.43341-0.1005 0-0.22757-0.024372-0.32506 0-0.02577 0.00644-0.13676 0.10191-0.16253 0.10835-0.05256 0.01314-0.11223-0.02012-0.16253 0-0.13715 0.054859-0.07956 0.10767-0.2167 0.16253-0.25903 0.10361-0.51065 0.20115-0.75846 0.32506-0.1762 0.088103-0.12887 0.013677-0.27088 0.10835-0.05418 0.036117-0.11649 0.062311-0.16253 0.10835-0.02855 0.028553-0.02058 0.085953-0.05418 0.10835-0.03005 0.020034-0.07409-0.011421-0.10835 0-0.07482 0.024942-0.05525 0.1227-0.10835 0.16253-0.04569 0.034264-0.11356 0.024795-0.16253 0.054176-0.0876 0.052558-0.13693 0.15289-0.2167 0.2167-0.18324 0.14659-0.43145 0.26892-0.59594 0.43341-0.15143 0.15143-0.25522 0.35394-0.43341 0.48758-0.03323 0.02492-0.25455 0.19493-0.27088 0.2167-0.03426 0.045685-0.0185 0.11794-0.05418 0.16253-0.04068 0.050844-0.12185 0.057509-0.16253 0.10835-0.03567 0.044593-0.01991 0.11684-0.05418 0.16253-0.02423 0.032304-0.07682 0.028951-0.10835 0.054176-0.05983 0.047862-0.11467 0.1027-0.16253 0.16253-0.04399 0.054988-0.03929 0.128-0.10835 0.16253-0.08076 0.040381-0.18128 0.0112-0.27088 0-0.04628-0.00579-0.31925-0.078366-0.37922-0.10835-0.15373-0.076863-0.17918-0.25696-0.27088-0.37923-0.061293-0.081724-0.16415-0.12911-0.2167-0.2167-0.029381-0.048968-0.028637-0.11145-0.054176-0.16253-0.10855-0.2171-0.31106-0.38182-0.43341-0.59594-0.040069-0.07012-0.057901-0.15364-0.10835-0.2167-0.064799-0.080998-0.35268-0.24433-0.43341-0.32506-0.028553-0.028553-0.025622-0.079799-0.054176-0.10835-0.068921-0.068921-0.75265-0.27939-0.86682-0.32506-0.10555-0.042218-0.33934-0.19319-0.43341-0.2167-0.035039-0.00876-0.076048 0.016152-0.10835 0-0.045685-0.022843-0.060928-0.089382-0.10835-0.10835-0.050301-0.02012-0.1094 0.010625-0.16253 0-0.15302-0.030604-0.28178-0.1788-0.43341-0.2167-0.078421-0.019605-0.19246-0.034571-0.27088-0.054176-0.27937-0.069843-1.5447 0.0046359-1.842 0.054176-0.20835 0.034726-0.26868 0.10835-0.48758 0.10835" fill="#e2264d" style="font-variation-settings:'wght' 900"/>
</svg>
