<?xml version="1.0" encoding="UTF-8"?>
<svg fill="none" version="1.1" viewBox="0 0 24 24" xmlns="http://www.w3.org/2000/svg">
 <path d="m12 9.4016c-1.1096-2.5125-3.6909-2.7359-4.8929-1.6401-0.97859 0.87939-1.4486 2.9872-0.55479 4.9274 1.5411 3.3361 5.4477 5.0879 5.4477 5.0879s3.9067-1.7518 5.4477-5.0879c0.8939-1.9402 0.4239-4.048-0.5547-4.9274-1.2021-1.0957-3.7834-0.8724-4.893 1.6401z" stroke="currentColor" stroke-linecap="round" stroke-linejoin="round" stroke-width="1.5"/>
 <rect x="2.75" y="2.75" width="18.5" height="18.5" rx="6" stroke="currentColor" stroke-width="1.5"/>
 <path d="m8.4108 21.978c-1.409-0.090086-2.6328-0.53799-3.7493-1.3722-0.14285-0.10673-0.44286-0.37719-0.66669-0.60102-0.58816-0.58816-0.93325-1.0679-1.2865-1.7885-0.40195-0.81998-0.61111-1.5989-0.67646-2.5192-0.035647-0.502-0.035647-6.893 0-7.395 0.095248-1.3413 0.54792-2.5515 1.3619-3.641 0.24952-0.33397 0.93375-1.0182 1.2677-1.2677 1.0898-0.81423 2.2992-1.2666 3.641-1.3619 0.50341-0.035747 6.8936-0.035645 7.395 1.179e-4 0.94186 0.067174 1.7544 0.28906 2.578 0.70398 0.71516 0.36031 1.2782 0.77664 1.8375 1.3588 0.78404 0.81609 1.3575 1.8312 1.6411 2.9052 0.23874 0.90406 0.24729 1.0985 0.23415 5.325-0.01159 3.7295-0.0088 3.6462-0.14239 4.2928-0.4069 1.97-1.6975 3.6766-3.4801 4.602-0.60227 0.31266-1.1781 0.51512-1.8284 0.64285-0.59258 0.11639-0.52724 0.11459-4.3476 0.11958-2.0038 0.0026-3.7043 8.58e-4 -3.7788-0.0039zm7.5359-1.5147c2.3667-0.31014 4.2047-2.1531 4.5185-4.5306 0.06023-0.45629 0.06023-7.41 0-7.8663-0.3138-2.3771-2.1548-4.2232-4.5185-4.5309-0.47118-0.06134-7.4163-0.062402-7.8798-0.0012045-2.3775 0.31385-4.2205 2.1519-4.5306 4.5185-0.061599 0.47006-0.062903 7.4145-0.0014798 7.8798 0.31325 2.373 2.1379 4.2062 4.5104 4.5316 0.20004 0.02744 1.0727 0.03592 3.9196 0.03809 3.1596 0.0024 3.7061-3e-3 3.9819-0.0391z" fill="#fff" stroke-width=".027088" style="font-variation-settings:'wght' 900"/>
 <path d="m11.385 18.286c-1.2364-0.62117-2.5475-1.5673-3.5306-2.5479-0.82094-0.81879-1.3913-1.5983-1.8633-2.5463-0.24407-0.49029-0.35974-0.79604-0.47675-1.2602-0.36392-1.4435-0.1387-3.02 0.58723-4.1105 0.47101-0.70758 1.1607-1.1661 2.0318-1.3509 0.36359-0.077108 1.0002-0.083532 1.3607-0.01373 0.85533 0.1656 1.53 0.52721 2.1603 1.1578l0.34537 0.34557 0.34537-0.34557c0.63023-0.63058 1.3049-0.99219 2.1603-1.1578 0.36052-0.069801 0.99714-0.063378 1.3607 0.01373 0.51091 0.10835 0.93536 0.2958 1.312 0.57943 1.2358 0.93061 1.785 2.9822 1.3071 4.8826-0.23928 0.95136-0.78191 1.9806-1.5417 2.9242-1.0583 1.3143-2.6872 2.6048-4.3289 3.4296-0.41102 0.20649-0.43556 0.21508-0.61478 0.21508s-0.20376-0.0086-0.61478-0.21508zm0.96692-1.5216c1.0713-0.60955 1.9719-1.2861 2.7511-2.0667 1.0934-1.0954 1.7727-2.2276 2.0084-3.3478 0.0698-0.33173 0.06935-1.2999-7.61e-4 -1.619-0.12411-0.56485-0.33513-1.0146-0.61806-1.3173-0.3273-0.35015-0.68447-0.50243-1.2305-0.52463-1.0756-0.043733-1.981 0.56435-2.5399 1.7058-0.18649 0.38084-0.3957 0.5361-0.72239 0.5361-0.3255 0-0.53392-0.15407-0.71861-0.53123-0.42465-0.86718-1.0299-1.4134-1.8198-1.6424-0.17948-0.052021-0.27366-0.061021-0.63084-0.060278-0.38856 8.082e-4 -0.436 0.0065102-0.63631 0.076487-0.29878 0.10438-0.49546 0.23099-0.69613 0.44816-0.27456 0.29713-0.4872 0.75411-0.60917 1.3092-0.070111 0.31908-0.070566 1.2873-7.619e-4 1.619 0.084482 0.40148 0.23804 0.83667 0.43229 1.2251 0.77801 1.5558 2.3166 3.0454 4.3272 4.1894 0.18623 0.10596 0.3447 0.19266 0.35214 0.19266 0.0074 0 0.16591-0.0867 0.35214-0.19266z" fill="#fff" stroke-width=".027088" style="font-variation-settings:'wght' 900"/>
</svg>
