<?xml version="1.0" encoding="UTF-8"?>
<svg fill="none" version="1.1" viewBox="0 0 24 24" xmlns="http://www.w3.org/2000/svg">
 <g stroke="currentColor" stroke-linecap="round" stroke-linejoin="round" stroke-width="1.5">
  <path d="m8.88 21.25h9.87c0.663 0 1.2989-0.2634 1.7678-0.7322 0.4688-0.4689 0.7322-1.1048 0.7322-1.7678v-3.63c-0.0053-0.6596-0.271-1.2903-0.7393-1.7549-0.4682-0.4645-1.1011-0.7251-1.7607-0.7251h-1.27"/>
  <path d="m11.38 18.73 6.1-6.11 1.87-1.87c0.2325-0.2314 0.417-0.5064 0.5429-0.8093s0.1907-0.62768 0.1907-0.9557-0.0648-0.6528-0.1907-0.9557c-0.1259-0.30289-0.3104-0.57792-0.5429-0.8093l-2.57-2.57c-0.2314-0.23251-0.5064-0.41701-0.8093-0.54291s-0.6277-0.19071-0.9557-0.19071-0.6528 0.06481-0.9557 0.19071-0.5779 0.3104-0.8093 0.54291l-1.87 1.87"/>
  <path d="m8.88 2.75h-3.63c-1.3807 0-2.5 1.1193-2.5 2.5v13.5c0 1.3807 1.1193 2.5 2.5 2.5h3.63c1.3807 0 2.5-1.1193 2.5-2.5v-13.5c0-1.3807-1.1193-2.5-2.5-2.5z"/>
  <path d="m7.065 18.594c0.88011 0 1.5936-0.7135 1.5936-1.5936s-0.71347-1.5936-1.5936-1.5936c-0.88012 0-1.5936 0.7135-1.5936 1.5936s0.71347 1.5936 1.5936 1.5936z"/>
 </g>
 <path d="m6.7736 19.311c-1.1034-0.14279-1.9697-1.0749-2.0256-2.1794-0.048256-0.95318 0.45159-1.8031 1.3061-2.2209 0.57508-0.28115 1.2692-0.31021 1.8618-0.07796 0.53374 0.20917 1.0016 0.6494 1.2521 1.1783 0.16201 0.34194 0.21287 0.58135 0.21239 0.99985-3.6e-4 0.31685-0.010004 0.39751-0.072205 0.60397-0.12969 0.43045-0.33495 0.76952-0.64382 1.0635-0.38762 0.36893-0.80779 0.56612-1.35 0.63356-0.25442 0.03164-0.28985 0.03158-0.54083-8.94e-4zm0.60604-1.5162c0.17246-0.06452 0.36059-0.2341 0.45307-0.40838 0.052766-0.09944 0.062771-0.15902 0.063062-0.37553 4.026e-4 -0.29916-0.051896-0.43865-0.23198-0.61873-0.17396-0.17396-0.32412-0.2331-0.59386-0.23388-0.19836-5.75e-4 -0.25173 0.0099-0.38531 0.07548-0.17133 0.08413-0.31106 0.22987-0.40393 0.4213-0.083594 0.1723-0.086444 0.50453-0.00585 0.68226 0.19196 0.42336 0.66854 0.6207 1.1048 0.45747z" fill="#fff" stroke-width=".027088" style="font-variation-settings:'wght' 900"/>
 <path d="m4.8836 21.966c-0.48888-0.057541-1.0018-0.24848-1.4259-0.53085-0.79452-0.52894-1.3162-1.3898-1.4251-2.3516-0.038012-0.33577-0.038012-13.831 0-14.167 0.15402-1.3605 1.1118-2.4653 2.4288-2.8015 0.11697-0.029864 0.32208-0.066833 0.45581-0.082152 0.33201-0.038033 3.9425-0.037398 4.2846 7.535e-4 0.39599 0.044155 0.74505 0.14355 1.0796 0.30741 0.87523 0.4287 1.5081 1.2086 1.7395 2.1436l0.06991 0.28255 0.449-0.44124c0.28906-0.28406 0.5318-0.49609 0.68146-0.59521 1.1212-0.74263 2.5169-0.7281 3.6477 0.037971 0.2995 0.20291 3.1596 3.063 3.3625 3.3625 0.7848 1.1584 0.77788 2.6007-0.01791 3.7312-0.06817 0.09684-0.32514 0.38025-0.57105 0.6298-0.32647 0.33131-0.43206 0.45372-0.39134 0.45372 0.13833 0 0.60734 0.14557 0.86398 0.26816 0.36619 0.17493 0.64045 0.36658 0.91431 0.63892 0.53034 0.5274 0.86259 1.2305 0.94097 1.9913 0.01935 0.18778 0.02559 0.9704 0.01837 2.3025-0.0098 1.8013-0.01602 2.0399-0.05832 2.2212-0.15801 0.67745-0.44865 1.2171-0.897 1.6654-0.44762 0.44762-0.97865 0.73401-1.6654 0.89818-0.19238 0.04599-0.57677 0.0488-7.246 0.05299-3.8736 0.0024-7.1308-0.0059-7.2383-0.01858zm4.5657-1.5464c0.27577-0.10073 0.47101-0.22358 0.67116-0.42228 0.19912-0.19768 0.33649-0.41934 0.43874-0.70795l0.0729-0.20577v-14.167l-0.076483-0.21644c-0.19235-0.5443-0.56563-0.92205-1.1063-1.1196l-0.19868-0.072575-2.0993-0.0077774c-1.8512-0.00686-2.1227-0.00261-2.2967 0.03593-0.6311 0.13974-1.1445 0.64071-1.3068 1.275-0.052486 0.20522-0.053418 0.33057-0.053418 7.1889 0 6.8583 9.314e-4 6.9837 0.053418 7.1889 0.15741 0.61548 0.63846 1.1003 1.2526 1.2625 0.18762 0.04954 0.30183 0.05182 2.3237 0.04642l2.1264-0.0057zm9.7397 0.0327c0.621-0.15883 1.1045-0.64232 1.2633-1.2633 0.05084-0.19878 0.05342-0.30717 0.05342-2.2453 0-1.9382-0.0026-2.0466-0.05342-2.2453-0.14721-0.57558-0.59287-1.0503-1.1655-1.2415-0.15792-0.05273-0.24589-0.05978-0.85327-0.06834l-0.6772-0.0096-5.6461 5.6505-0.03095 0.20316c-0.05996 0.3935-0.22808 0.86437-0.41346 1.158l-0.07269 0.11517h3.6935c3.5874 0 3.6995-0.0015 3.9024-0.05342zm-3.6227-6.957c2.128-2.1395 3.4518-3.4905 3.5106-3.5824 0.32387-0.50689 0.35013-1.1697 0.068946-1.74-0.10722-0.21747-0.14333-0.25611-1.6029-1.7157s-1.4982-1.4957-1.7157-1.6029c-0.12236-0.060332-0.31628-0.13056-0.43092-0.15607-0.43468-0.096708-0.97905-0.0013566-1.329 0.23278-0.071774 0.048025-0.5419 0.49708-1.0447 0.9979l-0.91422 0.91058v5.0453c0 2.7749 0.0094 5.0453 0.0208 5.0453 0.01144 0 1.5581-1.5457 3.4371-3.4348z" fill="#fff" stroke-width=".027088" style="font-variation-settings:'wght' 900"/>
</svg>
